<mxfile host="65bd71144e">
    <diagram id="YkSxAX3LS9yILOtN7RYs" name="Page-1">
        <mxGraphModel dx="832" dy="475" grid="1" gridSize="10" guides="1" tooltips="1" connect="1" arrows="1" fold="1" page="1" pageScale="1" pageWidth="850" pageHeight="1100" math="0" shadow="0">
            <root>
                <mxCell id="0"/>
                <mxCell id="1" parent="0"/>
                <mxCell id="2" value="" style="rounded=0;whiteSpace=wrap;html=1;fontFamily=Helvetica;" parent="1" vertex="1">
                    <mxGeometry x="12.5" y="10" width="850" height="580" as="geometry"/>
                </mxCell>
                <mxCell id="8" value="" style="rounded=0;whiteSpace=wrap;html=1;fontFamily=Helvetica;" parent="1" vertex="1">
                    <mxGeometry x="12.5" y="30" width="237.5" height="240" as="geometry"/>
                </mxCell>
                <mxCell id="3" value="Saylani Logo" style="ellipse;whiteSpace=wrap;html=1;" parent="1" vertex="1">
                    <mxGeometry x="59" y="40" width="130" height="80" as="geometry"/>
                </mxCell>
                <mxCell id="4" value="Fb logo" style="ellipse;whiteSpace=wrap;html=1;aspect=fixed;fontFamily=Helvetica;" parent="1" vertex="1">
                    <mxGeometry x="30" y="138" width="40" height="40" as="geometry"/>
                </mxCell>
                <mxCell id="5" value="insta&lt;br&gt;logo" style="ellipse;whiteSpace=wrap;html=1;aspect=fixed;fontFamily=Helvetica;" parent="1" vertex="1">
                    <mxGeometry x="82" y="139" width="40" height="40" as="geometry"/>
                </mxCell>
                <mxCell id="6" value="x&lt;br&gt;logo" style="ellipse;whiteSpace=wrap;html=1;aspect=fixed;fontFamily=Helvetica;" parent="1" vertex="1">
                    <mxGeometry x="134" y="139" width="40" height="40" as="geometry"/>
                </mxCell>
                <mxCell id="7" value="whats&lt;br&gt;logo" style="ellipse;whiteSpace=wrap;html=1;aspect=fixed;fontFamily=Helvetica;" parent="1" vertex="1">
                    <mxGeometry x="184" y="140" width="40" height="40" as="geometry"/>
                </mxCell>
                <mxCell id="10" value="&lt;br&gt;h1&lt;br&gt;a&lt;br&gt;a&lt;br&gt;a&lt;br&gt;a" style="rounded=0;whiteSpace=wrap;html=1;fontFamily=Helvetica;" parent="1" vertex="1">
                    <mxGeometry x="254" y="29" width="230" height="245" as="geometry"/>
                </mxCell>
                <mxCell id="11" value="&lt;br&gt;h1&lt;br&gt;a&lt;br&gt;a&lt;br&gt;a&lt;br&gt;a" style="rounded=0;whiteSpace=wrap;html=1;fontFamily=Helvetica;" parent="1" vertex="1">
                    <mxGeometry x="488" y="29" width="230" height="245" as="geometry"/>
                </mxCell>
                <mxCell id="12" value="&lt;br&gt;h1&lt;br&gt;a&lt;br&gt;a&lt;br&gt;a&lt;br&gt;a" style="rounded=0;whiteSpace=wrap;html=1;fontFamily=Helvetica;" parent="1" vertex="1">
                    <mxGeometry x="720" y="30" width="230" height="245" as="geometry"/>
                </mxCell>
                <mxCell id="13" value="ACCA logo" style="ellipse;whiteSpace=wrap;html=1;aspect=fixed;" vertex="1" parent="1">
                    <mxGeometry x="380" y="330" width="80" height="80" as="geometry"/>
                </mxCell>
                <mxCell id="14" value="" style="endArrow=none;html=1;" edge="1" parent="1" source="2" target="2">
                    <mxGeometry width="50" height="50" relative="1" as="geometry">
                        <mxPoint x="400" y="410" as="sourcePoint"/>
                        <mxPoint x="450" y="360" as="targetPoint"/>
                        <Array as="points">
                            <mxPoint x="460" y="290"/>
                        </Array>
                    </mxGeometry>
                </mxCell>
                <mxCell id="15" value="" style="endArrow=none;html=1;" edge="1" parent="1" source="2" target="2">
                    <mxGeometry width="50" height="50" relative="1" as="geometry">
                        <mxPoint x="400" y="410" as="sourcePoint"/>
                        <mxPoint x="450" y="360" as="targetPoint"/>
                    </mxGeometry>
                </mxCell>
                <mxCell id="16" value="" style="shape=link;html=1;" edge="1" parent="1" source="2" target="2">
                    <mxGeometry width="100" relative="1" as="geometry">
                        <mxPoint x="380" y="380" as="sourcePoint"/>
                        <mxPoint x="480" y="380" as="targetPoint"/>
                        <Array as="points"/>
                    </mxGeometry>
                </mxCell>
                <mxCell id="17" value="" style="rounded=0;whiteSpace=wrap;html=1;" vertex="1" parent="1">
                    <mxGeometry x="20" y="298" width="840" height="4" as="geometry"/>
                </mxCell>
                <mxCell id="18" value="" style="rounded=0;whiteSpace=wrap;html=1;" vertex="1" parent="1">
                    <mxGeometry x="22.5" y="430" width="840" height="4" as="geometry"/>
                </mxCell>
                <mxCell id="19" value="p" style="rounded=0;whiteSpace=wrap;html=1;" vertex="1" parent="1">
                    <mxGeometry x="320" y="450" width="210" height="46" as="geometry"/>
                </mxCell>
                <mxCell id="20" value="" style="rounded=0;whiteSpace=wrap;html=1;" vertex="1" parent="1">
                    <mxGeometry x="20" y="510" width="840" height="4" as="geometry"/>
                </mxCell>
                <mxCell id="22" value="Copyright 2024 by Saylani Welfare Int Trust" style="rounded=0;whiteSpace=wrap;html=1;" vertex="1" parent="1">
                    <mxGeometry x="270" y="527" width="340" height="46" as="geometry"/>
                </mxCell>
            </root>
        </mxGraphModel>
    </diagram>
</mxfile>